# xmcd
#
# Track frame offsets:
#	150
#	15660
#	38345
#	55324
#	75126
#	93919
#	108551
#	122934
#	140003
#	158176
#	174489
#	200126
#
# Disc length: 2852 seconds
#
# Revision: 1
# Processed by: cddbd v1.5.2PL0 Copyright (c) Steve Scherf et al.
# Submitted via: audiograbber 1.83.01
#
DISCID=970b220c
DTITLE=Bitter Blue - One Of A Kind
DYEAR=2003
DGENRE=Blues
TTITLE0=She's So Fine
TTITLE1=Me Myself And I
TTITLE2=One Of A Kind
TTITLE3=How could I Ever Say
TTITLE4=Good Morning Little Schoolgirl
TTITLE5=The Boogie Woogie Song
TTITLE6=She's A Monster
TTITLE7=Mambo Jambo
TTITLE8=Good Rockin' Tonight
TTITLE9=You'll Never Get My Car
TTITLE10=Low Down Boy
TTITLE11=Hay Bartender
EXTD=
EXTT0=
EXTT1=
EXTT2=
EXTT3=
EXTT4=
EXTT5=
EXTT6=
EXTT7=
EXTT8=
EXTT9=
EXTT10=
EXTT11=
PLAYORDER=
